<?xml version="1.0" standalone="no"?>
<!DOCTYPE svg PUBLIC "-//W3C//DTD SVG 20010904//EN"
 "http://www.w3.org/TR/2001/REC-SVG-20010904/DTD/svg10.dtd">
<svg version="1.0" xmlns="http://www.w3.org/2000/svg"
 width="225.000000pt" height="225.000000pt" viewBox="0 0 225.000000 225.000000"
 preserveAspectRatio="xMidYMid meet">
<metadata>
Created by potrace 1.16, written by Peter Selinger 2001-2019
</metadata>
<g transform="translate(0.000000,225.000000) scale(0.100000,-0.100000)"
fill="#000000" stroke="none">
<path d="M200 2232 c33 -22 89 -80 112 -117 14 -23 18 -50 18 -116 l0 -87 -48
-50 c-70 -73 -141 -112 -218 -119 -64 -6 -64 -6 -63 -37 0 -17 3 -25 6 -19 3
10 11 9 33 -2 22 -11 30 -12 33 -2 4 8 6 7 6 -4 1 -8 -3 -19 -9 -25 -12 -12
-20 -74 -10 -74 4 0 13 7 20 15 7 8 19 15 26 15 18 0 18 18 -1 36 -21 21 -19
34 5 34 13 0 20 -7 20 -19 0 -18 45 -39 57 -27 10 10 -10 27 -25 21 -32 -12
19 33 56 50 56 26 102 59 102 73 0 6 6 12 13 12 7 0 21 16 31 35 11 19 23 35
29 35 5 0 7 7 4 15 -4 8 4 22 16 32 12 10 24 27 25 38 2 11 8 22 13 23 5 2 9
10 9 18 0 9 4 12 10 9 6 -3 7 1 4 9 -4 10 1 18 12 23 11 4 36 20 56 36 20 16
41 26 47 22 6 -3 14 1 18 10 4 13 13 15 35 11 31 -6 84 -39 58 -35 -8 1 -23 1
-34 0 -15 -1 -16 -4 -6 -16 11 -13 8 -19 -11 -17 -3 1 -3 -12 -1 -28 3 -23 -2
-35 -24 -54 -22 -19 -25 -25 -13 -26 9 0 19 -7 23 -15 4 -11 13 -14 33 -9 16
4 29 11 31 16 2 4 11 8 19 8 13 0 14 9 9 54 -7 51 -6 56 18 71 14 10 23 22 19
28 -3 5 -2 7 3 4 5 -3 25 8 44 24 18 16 39 28 47 25 7 -3 16 1 20 8 5 7 23 20
41 29 32 15 33 15 27 -4 -4 -12 -2 -19 7 -19 10 0 9 -3 -2 -10 -10 -6 -11 -10
-3 -10 8 0 11 -10 7 -30 -5 -22 -2 -31 10 -36 10 -4 16 -17 15 -33 0 -14 1
-33 2 -41 5 -31 -1 -50 -16 -50 -21 0 -19 -9 8 -31 31 -26 60 -25 52 1 -4 13
-2 20 7 20 9 1 8 5 -4 13 -18 14 -41 114 -26 119 4 2 -3 19 -16 39 -25 37 -21
69 9 69 8 0 18 12 21 28 4 15 11 33 17 40 8 10 -72 12 -424 11 -402 -1 -432
-3 -409 -17z"/>
<path d="M1236 2226 c23 -74 112 -234 136 -244 19 -8 6 -40 -22 -52 -44 -18
-107 -92 -120 -140 -8 -30 -15 -40 -26 -36 -47 18 -126 37 -137 33 -7 -3 -5
-6 5 -6 25 -1 181 -52 175 -57 -2 -2 -23 2 -46 10 -23 9 -42 15 -44 14 -1 -1
-20 5 -42 13 -27 10 -86 14 -185 14 -123 0 -156 -4 -218 -23 -40 -13 -77 -20
-84 -16 -6 4 -8 3 -4 -4 4 -6 -16 -21 -48 -35 -30 -14 -63 -34 -75 -46 -12
-12 -21 -18 -21 -15 0 3 -27 -17 -59 -45 -64 -55 -142 -155 -182 -233 -13 -27
-27 -48 -31 -48 -4 0 -4 -7 -1 -17 4 -11 3 -14 -5 -9 -8 5 -10 2 -6 -8 3 -9 1
-16 -4 -16 -22 0 -47 -151 -46 -280 2 -136 27 -246 80 -353 76 -151 215 -292
362 -366 38 -20 42 -24 30 -39 -10 -14 -9 -14 9 1 12 11 24 14 27 8 3 -5 -8
-20 -25 -34 l-31 -24 35 -16 c19 -10 39 -17 44 -17 17 -1 40 -26 47 -50 5 -17
4 -21 -2 -12 -7 11 -11 8 -16 -12 -7 -29 -20 -29 -104 1 -23 8 -49 12 -57 9
-9 -3 -15 0 -15 8 0 9 -17 16 -45 20 -24 4 -47 11 -50 17 -4 5 -17 9 -30 9
-13 0 -25 3 -27 8 -1 4 -30 20 -63 36 -33 16 -72 37 -87 48 -16 11 -28 15 -28
10 0 -6 6 -13 13 -15 9 -4 9 -6 -1 -6 -7 -1 -10 -6 -7 -11 5 -8 11 -7 21 1 11
9 14 7 14 -9 0 -20 20 -35 122 -91 65 -36 99 -67 92 -86 -4 -8 -1 -15 5 -15 6
0 11 7 11 15 0 19 14 19 34 0 13 -13 121 -15 850 -15 474 0 836 4 836 9 0 5
14 14 30 21 l30 12 0 94 0 94 -37 0 c-21 -1 -57 -5 -80 -9 -35 -7 -47 -5 -75
14 -18 12 -67 43 -108 68 -108 65 -112 70 -107 122 3 23 1 65 -4 91 -6 31 -6
50 0 52 6 2 7 17 4 34 l-6 31 42 -7 c55 -8 89 -35 141 -107 42 -57 76 -80 115
-75 25 3 65 28 65 40 0 5 10 17 22 28 24 20 33 75 16 95 -6 7 -6 13 -1 13 5 0
10 20 11 45 1 42 0 45 -18 35 -11 -6 -20 -17 -20 -25 0 -12 -5 -12 -25 -3 -24
11 -37 58 -16 58 16 0 23 38 11 60 -6 11 -16 20 -23 20 -7 0 -13 9 -13 19 0
11 4 17 8 15 4 -3 8 0 8 5 0 6 9 11 20 11 11 0 20 -4 20 -10 0 -5 -9 -10 -20
-10 -11 0 -20 -4 -20 -10 0 -5 13 -10 29 -10 26 0 28 3 27 32 -2 20 -7 32 -15
30 -6 -1 -24 -3 -39 -4 -15 -1 -30 -7 -34 -13 -5 -6 -11 -5 -17 4 -5 7 -15 10
-22 7 -8 -4 -5 0 5 8 11 9 15 16 10 16 -5 0 -10 9 -10 20 0 13 5 19 14 15 8
-3 12 0 9 7 -2 7 -11 12 -20 12 -9 -1 -13 4 -10 12 3 8 -1 14 -11 14 -9 0 -16
7 -16 15 0 17 -16 20 -25 5 -11 -17 -35 9 -28 28 6 15 5 15 -10 3 -10 -8 -20
-12 -22 -9 -3 3 1 11 10 18 12 10 21 10 45 0 17 -7 33 -10 37 -6 3 3 -1 6 -10
6 -9 0 -19 4 -22 10 -4 6 1 7 12 3 10 -3 15 -3 11 2 -4 4 -1 14 7 21 8 8 12
27 10 44 -2 18 0 28 6 24 5 -3 16 0 24 6 12 10 11 16 -7 41 -12 15 -26 25 -32
22 -6 -4 -5 1 3 10 12 15 11 20 -3 36 -21 23 -65 23 -59 1 2 -8 -2 -5 -8 7 -7
13 -20 25 -30 28 -11 4 -19 11 -19 16 0 5 10 4 23 -3 12 -7 28 -11 35 -10 7 2
64 -24 127 -57 l115 -60 0 270 c0 223 -2 270 -13 266 -8 -3 -40 -8 -73 -11
l-59 -6 69 15 c38 8 71 17 74 20 14 14 -11 14 -64 0 -67 -17 -108 -19 -99 -5
3 6 26 10 50 10 60 0 95 15 95 40 0 11 -4 20 -10 20 -5 0 -10 -6 -10 -14 0 -8
-7 -17 -16 -20 -22 -8 -26 -8 -19 4 6 9 -24 15 -65 12 -36 -2 -50 17 -44 61 4
23 3 39 -1 35 -5 -4 -14 -3 -22 3 -16 14 -17 5 0 -21 10 -17 9 -22 -3 -30 -11
-7 -11 -10 -2 -10 10 0 10 -3 0 -14 -7 -8 -16 -12 -20 -9 -7 4 -12 -12 -9 -29
0 -5 -4 -8 -9 -8 -21 0 -9 -27 18 -38 24 -10 20 -11 -28 -6 -60 5 -73 7 -137
18 -66 12 -60 25 7 19 41 -4 60 -2 60 6 0 16 16 14 34 -4 18 -19 28 -6 32 43
2 19 11 46 20 61 15 22 15 24 1 13 -12 -10 -21 -11 -37 -2 -27 15 -94 20 -80
6 14 -14 12 -26 -5 -26 -8 0 -15 -4 -15 -8 0 -12 -68 -13 -75 -2 -8 13 -55 13
-55 0 0 -5 -9 -10 -20 -10 -11 0 -20 5 -20 10 0 6 -5 10 -11 10 -7 0 -10 -12
-7 -30 3 -16 2 -30 -1 -30 -3 0 -41 26 -85 56 -60 43 -75 59 -65 66 10 7 8 8
-7 4 -14 -4 -27 1 -41 18 -12 13 -19 27 -16 30 4 3 -1 6 -10 6 -10 0 -14 5
-11 15 8 20 26 19 68 -6 39 -23 66 -16 87 23 10 19 9 20 -19 16 -17 -2 -29 -1
-26 4 3 4 0 8 -5 8 -6 0 -11 -4 -11 -10 0 -20 -37 -9 -63 18 -32 33 -67 126
-67 177 l0 36 -90 -2 c-87 -1 -90 -2 -84 -23z m387 -458 c21 -11 21 -11 2 -18
-15 -5 -19 -15 -17 -41 2 -23 -5 -50 -22 -79 -14 -25 -26 -53 -26 -64 0 -10
16 -47 35 -83 43 -80 44 -89 4 -32 -17 24 -67 80 -111 125 -61 62 -76 83 -64
87 9 4 16 18 16 32 0 20 5 25 24 25 14 0 27 4 31 9 3 6 13 9 23 9 9 -1 35 2
57 6 37 7 39 9 20 22 -23 17 -3 19 28 2z m-536 -67 c77 -9 132 -35 190 -91 18
-16 36 -29 40 -29 15 4 43 -13 37 -22 -3 -5 0 -9 5 -9 6 0 11 -5 11 -11 0 -6
20 -34 44 -62 59 -70 95 -157 64 -157 -18 0 -48 -31 -48 -50 0 -10 -7 -21 -16
-24 -20 -8 -67 21 -59 34 4 6 -18 10 -54 10 -54 0 -61 -2 -61 -20 0 -11 5 -20
10 -20 6 0 10 7 10 15 0 8 5 15 11 15 6 0 9 -9 6 -20 -3 -11 -1 -18 4 -15 5 3
45 -1 90 -10 99 -18 92 -18 85 0 -3 8 -2 15 2 15 4 0 15 14 24 30 9 17 24 30
33 30 12 0 15 6 10 20 -5 15 0 26 17 39 23 19 23 19 35 -10 7 -16 12 -32 12
-36 -1 -3 3 -9 8 -12 16 -12 34 -52 27 -62 -3 -5 1 -21 10 -34 20 -31 20 -49
1 -41 -10 4 -15 -1 -15 -15 0 -11 -9 -23 -22 -28 -18 -6 -19 -9 -5 -14 10 -4
17 -2 17 4 0 6 5 7 12 3 7 -4 8 -3 4 4 -4 7 -1 12 8 12 9 0 16 6 17 13 1 23
17 -41 24 -100 13 -115 -29 -306 -92 -412 -14 -25 -28 -40 -31 -33 -2 7 1 19
7 26 21 25 30 73 18 89 -14 17 -57 29 -57 16 0 -5 7 -9 17 -9 24 0 8 -12 -35
-26 -37 -13 -37 -13 -14 6 28 23 28 30 -3 30 -14 0 -25 6 -25 13 0 17 -23 67
-31 67 -14 0 -31 -31 -25 -46 4 -12 2 -15 -9 -10 -8 3 -15 1 -15 -4 0 -10 -20
-6 -57 13 -18 8 -27 7 -41 -6 -10 -10 -32 -17 -49 -17 -17 0 -34 -6 -36 -12
-4 -10 -7 -10 -15 0 -5 7 -13 12 -18 11 -20 -3 -24 2 -14 20 12 24 -6 40 -23
21 -9 -10 -9 -11 1 -6 6 4 12 2 12 -3 0 -18 -19 -12 -30 9 -9 17 -8 20 7 20
41 1 67 42 41 68 -6 6 -8 15 -4 19 4 4 11 1 15 -6 5 -8 11 -9 15 -3 3 5 -1 12
-9 16 -8 3 -15 10 -15 15 0 6 8 7 18 4 16 -7 16 -6 0 11 -19 19 -22 27 -10 25
33 -5 42 3 42 36 l0 36 -22 -21 c-13 -12 -31 -19 -41 -16 -15 4 -18 0 -14 -15
3 -11 0 -19 -6 -19 -7 0 -6 -5 3 -10 11 -8 8 -9 -12 -4 -30 7 -40 -12 -12 -23
13 -5 12 -8 -6 -25 -16 -15 -18 -23 -10 -33 8 -10 7 -18 -6 -34 -10 -11 -21
-18 -26 -15 -4 3 -8 0 -8 -5 0 -6 -5 -11 -11 -11 -5 0 -9 8 -8 18 4 45 0 53
-21 40 -22 -14 -27 -29 -7 -25 7 1 11 -8 10 -25 -1 -20 2 -25 13 -21 9 3 14
-2 14 -15 0 -23 -22 -42 -28 -24 -2 8 -8 7 -19 -3 -16 -17 -43 -20 -43 -5 0 6
-5 10 -11 10 -5 0 -7 -5 -3 -11 4 -7 1 -10 -7 -7 -7 2 -29 -3 -48 -13 -35 -17
-67 -15 -40 2 10 6 10 9 2 9 -10 0 -10 6 -1 25 6 14 19 25 29 25 9 0 19 7 23
15 3 8 1 15 -5 15 -6 0 -8 4 -4 9 3 5 1 12 -5 16 -16 10 -11 43 8 49 35 11
123 15 117 6 -3 -6 1 -7 11 -3 15 6 15 7 -1 15 -9 5 -22 7 -29 5 -7 -3 -19 -1
-27 4 -10 6 -8 9 11 10 14 1 27 1 30 1 3 0 6 14 7 31 2 18 7 33 13 35 6 2 15
13 21 25 7 12 8 19 4 15 -4 -4 -13 0 -20 9 -7 9 -19 17 -28 19 -9 1 -34 5 -56
9 -24 4 -41 2 -46 -4 -4 -7 5 -11 23 -11 16 0 36 -8 43 -17 7 -10 10 -15 5
-11 -9 8 -36 -13 -30 -24 5 -8 -58 -58 -73 -58 -6 0 -13 10 -16 22 -5 19 -8
20 -27 7 -28 -18 -28 -31 0 -46 32 -16 44 -39 24 -47 -9 -3 -20 -3 -25 0 -14
8 -61 -5 -54 -15 2 -5 -3 -12 -12 -15 -9 -4 -20 -1 -25 6 -6 11 -8 11 -8 0 0
-10 -5 -10 -21 -2 -11 7 -23 9 -27 6 -3 -3 0 -6 6 -6 6 0 18 -7 26 -16 11 -11
16 -12 16 -3 0 9 4 8 13 -3 14 -18 47 -31 47 -19 0 5 -5 11 -12 13 -18 6 1 28
24 28 16 0 19 -5 16 -25 -3 -14 0 -25 6 -26 6 0 -5 -6 -24 -13 -25 -10 -37
-10 -42 -2 -5 7 -13 5 -25 -7 -17 -17 -17 -18 2 -11 11 4 17 4 13 0 -8 -9 13
-36 23 -30 4 2 6 -4 5 -13 0 -9 10 -23 24 -30 14 -7 19 -13 11 -13 -11 0 -11
-3 -1 -14 6 -8 19 -12 27 -9 13 5 15 1 9 -22 -6 -25 -6 -26 9 -11 9 9 13 20
10 26 -3 5 -2 10 4 10 14 0 25 -21 15 -29 -15 -11 -34 -50 -34 -71 0 -13 -5
-18 -15 -14 -8 4 -15 10 -15 16 0 5 6 6 13 3 6 -4 3 1 -8 10 -11 9 -37 24 -57
33 -36 16 -50 32 -28 32 7 0 7 6 0 20 -7 14 -7 25 1 38 13 20 6 52 -10 52 -14
0 -51 -68 -45 -84 4 -11 0 -13 -15 -9 -16 4 -21 1 -21 -15 0 -22 -22 -35 -45
-26 -15 6 -20 -14 -16 -64 1 -12 -3 -30 -8 -40 -10 -15 -10 -15 -11 3 0 15 -7
20 -25 20 -19 0 -22 -2 -12 -10 7 -5 16 -18 20 -28 3 -9 13 -17 22 -17 13 0
13 -3 3 -19 -9 -15 -15 -17 -25 -9 -7 6 -13 16 -13 22 0 20 -47 59 -55 47 -3
-6 -11 -9 -16 -6 -9 6 -13 -7 -10 -35 1 -11 -3 -10 -14 4 -8 11 -15 16 -15 12
0 -4 -11 6 -25 22 -14 17 -25 35 -25 41 0 6 -4 11 -9 11 -17 0 -19 28 -5 55
20 39 18 43 -23 47 -30 2 -37 7 -35 21 2 10 -9 32 -23 49 -17 20 -24 36 -19
47 4 9 9 49 11 89 2 55 0 74 -11 78 -16 6 -15 26 2 47 7 8 10 30 7 52 -2 21
-1 35 2 31 7 -7 15 13 59 139 9 28 25 59 35 71 11 11 19 27 19 36 0 9 7 21 15
28 8 7 13 16 10 20 -3 5 0 12 6 15 5 4 8 13 5 21 -3 8 -1 14 5 14 6 0 7 5 4
10 -7 11 27 6 73 -11 13 -5 22 -5 22 1 0 6 -6 10 -14 10 -20 0 -28 27 -10 34
14 5 14 8 0 22 -16 16 -22 39 -8 31 4 -3 25 3 46 14 21 10 49 16 61 13 18 -4
23 0 31 28 10 33 10 33 73 34 42 0 68 5 75 15 19 23 80 75 72 62 -9 -16 -1
-16 27 -1 35 18 79 27 112 22 17 -3 62 -9 102 -13z m943 -220 c0 -27 -41 -83
-78 -106 -112 -69 -107 -62 -123 -163 -14 -91 -33 -84 -42 15 -4 36 -15 83
-26 104 -12 23 -16 41 -11 44 6 3 10 11 10 16 0 6 -4 7 -10 4 -6 -3 -7 1 -4 9
3 9 10 14 15 11 9 -6 38 8 78 38 27 20 58 22 63 5 3 -8 14 -5 34 9 48 34 94
41 94 14z m-547 -828 c-4 -10 -2 -14 5 -9 6 3 13 2 17 -4 4 -6 10 -8 14 -5 5
2 13 -7 20 -21 10 -23 8 -31 -13 -58 -14 -19 -21 -38 -17 -45 9 -15 47 26 87
95 35 60 42 56 9 -5 -38 -68 -111 -155 -181 -213 -68 -56 -213 -130 -299 -153
-128 -33 -307 -29 -414 10 -48 18 -30 18 44 0 80 -20 260 -19 339 0 116 30
159 47 145 57 -10 6 -7 7 9 3 13 -4 22 -2 22 4 0 6 4 10 8 8 9 -2 128 69 137
82 3 5 -2 11 -10 15 -8 3 -17 0 -21 -6 -5 -7 -2 -8 6 -3 9 5 11 4 6 -4 -4 -6
-12 -9 -17 -5 -13 8 -40 -16 -32 -28 3 -6 0 -8 -8 -6 -17 6 -125 -50 -121 -63
1 -5 -9 -7 -24 -3 -18 5 -25 3 -21 -3 7 -11 -14 -23 -36 -23 -7 0 -6 5 3 11
12 9 11 10 -5 4 -11 -4 -61 -11 -112 -17 -100 -12 -174 -5 -154 15 22 22 10
30 -13 8 -19 -18 -30 -21 -60 -16 -36 7 -45 18 -26 30 18 11 0 24 -33 23 -18
0 -43 3 -57 7 -22 7 -23 6 -11 -9 22 -26 -2 -19 -49 15 -39 28 -42 33 -27 44
19 14 23 65 6 65 -6 0 -9 8 -6 19 2 10 0 26 -5 35 -6 11 -5 16 2 16 7 0 14 -9
17 -19 9 -34 44 -29 86 12 43 42 59 45 94 17 14 -11 22 -20 17 -20 -5 0 -4 -4
1 -8 6 -4 18 -20 27 -37 17 -31 53 -44 71 -26 8 8 8 14 0 22 -18 18 19 119 44
119 7 0 13 8 13 17 0 13 3 14 12 5 15 -15 42 -16 33 -1 -4 6 0 9 11 7 14 -2
18 2 15 17 -3 20 -3 20 18 1 22 -20 22 -20 27 1 5 17 15 22 50 25 28 2 45 -1
48 -9 3 -7 12 -10 20 -7 8 3 24 -1 35 -8 21 -15 21 -15 -4 -28 -19 -10 -22
-16 -14 -27 6 -7 9 -22 6 -34 -4 -15 -2 -19 9 -15 9 3 14 -1 14 -13 0 -12 7
-18 17 -17 12 0 19 -7 21 -21 4 -27 39 -32 49 -8 7 20 -1 28 -30 31 -12 1 -24
3 -26 3 -10 2 43 51 55 51 7 0 15 4 18 9 8 12 -48 0 -56 -13 -5 -7 -8 -8 -8 0
0 5 13 23 28 40 16 16 34 39 41 51 7 14 17 20 26 17 19 -8 19 -19 0 -38 -17
-17 -19 -26 -6 -26 5 0 13 9 16 20 9 27 18 25 53 -10 17 -16 34 -30 38 -30 5
0 3 5 -3 11 -9 9 -8 15 3 27 19 19 11 27 -14 13 -15 -8 -24 -6 -41 13 l-22 23
32 1 c17 0 34 3 37 6 12 12 21 5 15 -11z"/>
<path d="M984 1248 c21 -17 15 -52 -10 -62 -12 -5 -15 -2 -10 9 3 9 2 13 -4
10 -6 -3 -10 -2 -10 3 0 6 -9 8 -20 5 -11 -3 -17 -10 -14 -15 3 -5 12 -7 20
-4 8 3 14 1 14 -4 0 -6 -11 -10 -25 -10 -17 0 -25 6 -25 18 0 12 -2 14 -8 4
-6 -9 -15 -10 -33 -3 l-24 10 25 1 25 2 -25 7 c-14 5 -28 6 -32 4 -15 -8 15
-50 44 -61 30 -11 31 -13 15 -30 -23 -25 -21 -32 6 -31 21 0 21 1 2 10 -15 7
-9 8 20 3 104 -15 110 -15 143 6 17 11 32 26 32 34 0 8 4 16 9 18 14 5 -7 48
-24 48 -9 0 -26 6 -38 14 -12 8 -33 17 -47 21 -23 7 -24 6 -6 -7z"/>
<path d="M774 1236 c-3 -8 -28 -23 -55 -32 -28 -10 -56 -25 -62 -33 -10 -12
-9 -14 7 -8 14 6 17 4 12 -8 -3 -9 1 -18 9 -21 21 -8 -4 -46 -27 -39 -9 3 -19
1 -23 -5 -4 -6 -13 -9 -21 -6 -19 7 -18 -3 4 -27 17 -19 16 -19 -18 -13 l-35
7 28 -18 c31 -20 36 -37 9 -29 -29 9 -87 -20 -100 -49 -7 -15 -18 -25 -25 -22
-19 7 -57 -11 -57 -27 0 -12 5 -12 33 -3 17 7 35 16 38 21 4 5 24 6 46 3 29
-5 47 -2 70 13 23 13 33 15 36 7 3 -7 4 2 2 20 -2 20 2 33 11 37 9 3 14 -1 14
-11 0 -13 3 -14 12 -5 14 14 42 16 34 3 -3 -4 3 -16 14 -26 18 -16 20 -16 20
-2 0 10 18 35 41 58 31 31 40 47 36 65 -2 13 0 24 4 24 5 0 -4 22 -20 48 -15
26 -26 58 -25 70 4 25 -4 30 -12 8z"/>
<path d="M1325 973 c-20 -20 -33 -43 -31 -50 3 -8 -2 -13 -14 -13 -11 0 -20 5
-20 10 0 14 -27 12 -36 -2 -5 -7 -7 -24 -6 -39 1 -15 -6 -33 -18 -44 -27 -25
-16 -35 25 -24 19 6 41 7 48 3 9 -5 9 -4 0 6 -15 16 6 40 36 40 22 0 29 -24
11 -35 -5 -3 -10 -11 -10 -16 0 -11 49 18 67 39 10 12 18 13 37 4 25 -11 47 0
26 13 -15 9 -12 42 6 71 9 13 14 27 10 31 -3 3 -6 1 -6 -5 0 -7 -12 -12 -26
-12 -14 0 -23 4 -20 8 6 10 -21 52 -34 52 -5 0 -25 -17 -45 -37z"/>
<path d="M1690 2242 c0 -5 -8 -17 -18 -28 -30 -33 -69 -134 -52 -134 5 0 14 8
20 18 10 16 10 16 8 -2 -2 -15 8 -23 46 -36 37 -12 54 -24 67 -50 10 -18 24
-37 31 -41 7 -5 13 -14 13 -20 0 -17 65 -38 94 -32 14 4 22 2 18 -4 -4 -5 6
-8 24 -5 16 2 28 9 26 15 -2 7 2 29 8 51 15 50 40 55 65 13 10 -18 22 -37 27
-43 4 -5 13 -19 19 -30 14 -24 44 -31 44 -10 0 21 28 46 51 46 12 0 21 -9 25
-26 4 -17 11 -23 21 -20 8 3 17 6 19 6 3 0 4 46 3 102 -1 95 -2 100 -18 81
-23 -30 -60 -47 -74 -35 -8 7 -17 5 -27 -6 -13 -14 -12 -15 3 -9 12 4 17 1 17
-11 0 -12 -9 -18 -27 -20 -22 -1 -24 0 -13 8 9 6 10 10 3 10 -7 0 -18 -10 -24
-22 -11 -20 -12 -20 -24 -4 -7 9 -17 17 -22 17 -12 0 -22 34 -13 48 4 7 11 11
16 9 5 -1 10 6 13 17 2 15 0 17 -10 9 -8 -6 -28 -16 -46 -22 -28 -9 -33 -8
-46 12 -14 21 -19 22 -61 12 -51 -12 -57 -25 -23 -50 15 -12 17 -16 5 -12 -13
4 -20 -2 -24 -19 -8 -33 -41 -33 -77 1 -29 27 -31 50 -4 48 9 -1 15 2 12 6 -3
5 4 11 15 15 11 3 20 13 20 21 0 8 0 17 1 21 1 17 -19 12 -23 -5 -7 -24 -128
-57 -128 -35 0 7 7 13 15 13 8 0 15 9 15 20 0 21 -15 27 -25 10 -9 -15 -25
-12 -25 5 0 8 7 15 16 15 8 0 13 4 10 9 -3 4 5 6 17 4 30 -6 132 30 132 47 0
7 -8 18 -17 24 -14 8 -22 5 -41 -18 -29 -34 -64 -33 -59 2 2 12 -2 22 -7 22
-6 0 -11 -4 -11 -8z"/>
</g>
</svg>
