<?xml version="1.0" standalone="no"?>
<!DOCTYPE svg PUBLIC "-//W3C//DTD SVG 20010904//EN"
 "http://www.w3.org/TR/2001/REC-SVG-20010904/DTD/svg10.dtd">
<svg version="1.0" xmlns="http://www.w3.org/2000/svg"
 width="275.000000pt" height="183.000000pt" viewBox="0 0 275.000000 183.000000"
 preserveAspectRatio="xMidYMid meet">
<metadata>
Created by potrace 1.16, written by Peter Selinger 2001-2019
</metadata>
<g transform="translate(0.000000,183.000000) scale(0.100000,-0.100000)"
fill="#000000" stroke="none">
<path d="M1814 1801 c37 -38 171 -105 277 -136 191 -58 337 -83 529 -90 l135
-5 -170 24 c-297 42 -567 126 -697 217 -14 11 -43 19 -64 19 l-38 0 28 -29z"/>
<path d="M2037 1794 c61 -29 236 -84 267 -84 5 0 -7 12 -27 28 -24 18 -37 37
-39 57 l-3 30 -135 2 -135 2 72 -35z"/>
<path d="M1705 1781 c3 -12 0 -21 -10 -25 -19 -7 -20 -36 -1 -36 7 0 26 -20
42 -45 15 -25 32 -45 36 -45 4 0 8 -6 8 -13 0 -25 35 -46 100 -63 36 -9 75
-22 87 -30 12 -8 34 -14 48 -14 14 0 40 -6 58 -14 18 -7 84 -21 147 -30 63
-10 126 -22 139 -27 26 -11 191 -12 314 -2 72 5 77 7 77 29 0 26 4 25 -210 43
-141 12 -349 61 -480 112 -97 37 -304 142 -327 164 -20 21 -36 19 -28 -4z"/>
<path d="M1355 1523 c-42 -9 -85 -38 -85 -57 0 -10 -8 -24 -17 -31 -15 -11
-15 -17 -5 -39 15 -33 16 -76 2 -76 -6 0 -20 15 -31 34 -13 22 -34 39 -62 50
-83 31 -131 14 -131 -48 0 -20 -6 -38 -13 -40 -18 -7 -16 -26 2 -26 8 0 15 -5
15 -11 0 -5 -4 -7 -10 -4 -5 3 -10 2 -10 -4 0 -5 7 -14 17 -19 15 -9 14 -10
-3 -20 -10 -5 -39 -12 -64 -16 -53 -8 -88 -25 -55 -27 14 -1 10 -4 -10 -9 -28
-7 -26 -8 15 -9 47 -2 97 -32 85 -51 -3 -6 4 -10 17 -10 18 -1 15 -4 -17 -20
-22 -11 -48 -19 -58 -20 -10 0 -28 -6 -40 -14 -32 -20 -71 -31 -63 -17 9 14
-1 14 -17 1 -7 -6 -32 -24 -57 -40 -42 -28 -45 -28 -48 -10 -5 28 -24 25 -20
-2 2 -16 9 -22 23 -21 45 4 98 23 134 47 38 26 57 33 47 17 -11 -16 60 -22 95
-7 69 28 129 14 113 -28 -3 -8 -1 -17 4 -20 5 -3 12 6 15 19 2 14 0 28 -4 31
-16 9 23 56 43 51 10 -3 18 -2 18 2 0 15 119 30 150 19 40 -14 38 -28 -5 -28
-35 0 -42 -11 -36 -57 1 -7 -5 -13 -12 -13 -23 0 -42 -29 -29 -42 8 -8 29 -4
76 13 36 12 66 26 66 31 0 4 5 8 11 8 6 0 33 11 59 24 27 13 51 22 54 19 10
-10 66 19 66 35 0 21 39 52 65 52 23 0 55 37 55 64 0 8 6 17 13 20 10 5 10 7
0 12 -7 3 -13 15 -13 27 -1 29 -21 55 -39 49 -8 -2 -11 0 -8 6 10 15 -48 35
-93 30 -38 -3 -40 -2 -40 25 0 15 -4 26 -9 23 -5 -4 -7 3 -4 14 4 14 1 20 -8
18 -7 -2 -15 6 -17 17 -6 28 -37 55 -64 56 -13 0 -17 3 -10 6 6 2 10 9 6 14
-5 9 -24 10 -59 2z"/>
<path d="M1767 1069 c-10 -6 -23 -9 -29 -7 -7 3 -20 -3 -29 -11 -41 -37 -51
-42 -77 -40 -62 5 -82 -1 -94 -26 -8 -18 -8 -28 1 -39 11 -12 8 -20 -13 -41
-14 -14 -34 -25 -44 -25 -11 0 -25 -7 -32 -15 -11 -14 -14 -13 -27 5 -17 24
-38 25 -84 6 -19 -7 -66 -19 -104 -25 -88 -15 -109 -26 -66 -36 32 -7 31 -10
-12 -44 -14 -11 -20 -11 -32 -1 -10 8 -15 9 -15 2 0 -21 69 -32 127 -21 37 7
59 7 66 0 14 -14 -19 -45 -52 -48 -14 -1 -45 -5 -69 -8 -33 -4 -54 1 -90 19
-51 26 -99 35 -120 23 -7 -5 -12 -3 -12 6 0 23 -27 30 -124 32 -48 2 -98 7
-110 13 -56 25 -76 31 -76 21 0 -9 -30 -7 -98 7 -36 7 -19 -9 42 -40 30 -15
61 -34 67 -42 15 -18 -1 -31 -87 -73 -62 -30 -89 -66 -58 -78 8 -3 14 -11 14
-19 0 -17 17 -18 23 -1 4 10 6 9 6 0 1 -7 7 -13 14 -13 8 0 22 -9 32 -20 10
-12 24 -19 31 -16 8 3 11 -1 7 -10 -4 -10 0 -12 11 -8 9 3 16 1 16 -5 0 -6 11
-16 25 -21 14 -5 25 -14 25 -19 0 -5 14 -12 30 -16 17 -4 28 -11 24 -16 -5 -9
9 -13 34 -10 8 1 19 -2 26 -8 16 -13 111 -27 161 -23 l40 4 -71 22 c-69 22
-193 94 -226 132 -22 25 -78 135 -78 153 0 12 3 11 18 -2 9 -8 33 -17 52 -19
21 -2 34 -8 33 -15 -2 -7 -4 -18 -5 -24 -2 -6 3 -14 11 -16 9 -4 11 0 7 15 -5
16 -2 20 19 20 14 0 24 -3 21 -5 -3 -3 2 -12 10 -20 10 -11 25 -13 54 -8 57
10 120 -2 113 -21 -4 -12 0 -14 23 -8 16 4 35 11 42 17 16 13 37 -12 22 -27
-15 -15 7 -44 40 -51 16 -4 30 -11 30 -17 0 -6 6 -8 14 -5 8 3 17 3 21 -1 4
-4 23 -7 43 -7 35 0 37 -2 34 -29 -3 -23 0 -27 13 -22 9 3 14 2 11 -3 -6 -10
26 -21 62 -21 12 0 22 5 22 11 0 5 5 7 10 4 6 -3 18 2 28 11 15 16 15 17 0 12
-21 -8 -31 15 -15 35 7 8 37 20 67 26 30 7 75 24 100 39 50 30 61 32 73 17 6
-7 10 -6 14 3 2 6 15 12 28 12 47 0 71 17 84 59 6 23 9 46 5 53 -9 14 54 -22
68 -40 6 -7 12 -22 13 -35 1 -12 3 -25 4 -29 0 -5 11 -8 24 -7 12 0 16 3 9 6
-16 6 -6 23 14 23 9 0 13 -5 9 -12 -4 -7 1 -4 9 6 9 11 16 31 16 45 0 18 -3
22 -9 13 -7 -11 -11 -11 -24 2 -8 9 -20 16 -26 16 -6 0 -11 5 -11 11 0 6 7 8
16 5 8 -3 12 -2 9 4 -3 6 -15 10 -26 10 -10 0 -19 5 -19 10 0 6 8 10 17 10 9
0 13 3 10 6 -11 11 -98 -18 -118 -39 -23 -25 -35 -17 -20 12 9 17 8 22 -8 31
-30 15 -163 18 -168 3 -3 -9 -11 -9 -31 -2 -15 6 -28 10 -29 10 -2 -1 -6 0
-10 0 -12 3 -36 6 -55 8 -35 2 -17 20 25 25 23 3 72 9 109 14 47 6 79 5 110
-5 51 -15 114 -17 123 -3 3 5 12 7 19 4 8 -3 17 0 22 7 4 8 3 10 -4 5 -7 -4
-12 -4 -11 1 1 12 67 64 85 67 18 3 41 36 25 36 -5 0 -12 8 -14 18 -4 16 -5
16 -6 0 0 -10 -9 -18 -18 -18 -13 0 -14 3 -5 12 7 7 12 17 12 22 0 6 -5 5 -12
-2 -7 -7 -16 -12 -22 -12 -5 0 -1 6 9 14 11 8 25 12 32 9 7 -3 13 0 13 7 0 6
-4 9 -10 5 -5 -3 -19 12 -32 34 -23 40 -58 61 -58 35 0 -8 -5 -14 -10 -14 -7
0 -7 6 0 19 5 11 10 22 10 25 0 10 -34 6 -53 -5z"/>
<path d="M2159 1021 c30 -28 58 -52 61 -53 9 -4 122 -144 177 -218 30 -41 40
-64 38 -87 -1 -24 1 -30 10 -23 15 12 48 -42 39 -64 -8 -21 -76 -53 -127 -60
-10 -1 -26 -10 -37 -18 -10 -9 -27 -21 -39 -27 -11 -6 -19 -20 -18 -30 3 -39
80 -20 142 34 87 77 99 85 117 79 12 -4 18 -1 16 8 -3 15 2 15 55 4 29 -7 42
-5 56 8 10 9 29 16 43 16 32 0 58 9 58 21 0 4 -13 3 -30 -2 -16 -6 -37 -9 -47
-6 -14 4 -14 5 4 6 12 0 24 5 28 11 3 5 12 7 19 4 8 -3 16 -1 19 3 3 5 -31 31
-76 58 -113 69 -170 106 -256 167 -76 55 -86 63 -111 94 -42 50 -134 119 -163
122 l-32 3 54 -50z"/>
<path d="M547 1033 c-4 -3 -7 -17 -7 -29 0 -24 -26 -44 -55 -44 -9 0 -18 12
-22 30 -6 33 -18 46 -27 31 -10 -15 15 -60 37 -67 16 -5 17 -8 6 -15 -10 -6
-6 -9 13 -9 15 0 30 -4 33 -10 3 -5 15 -10 26 -10 11 0 17 5 14 10 -12 20 9 9
52 -26 38 -31 46 -34 60 -22 12 9 15 9 9 1 -8 -14 6 -18 18 -6 8 9 11 9 86 12
30 2 49 5 43 8 -23 9 -14 22 20 26 17 3 -5 4 -51 3 -76 -1 -87 3 -83 27 0 4
-4 7 -9 7 -6 0 -8 -10 -4 -24 7 -31 -5 -38 -47 -24 -74 24 -77 27 -75 72 2 24
6 48 10 54 8 13 -35 18 -47 5z"/>
<path d="M178 934 c-5 -4 -8 -22 -8 -40 0 -18 -5 -45 -10 -59 -11 -28 -3 -78
10 -70 5 3 5 -7 1 -22 -4 -16 -6 -35 -4 -43 9 -33 57 -130 65 -130 4 0 8 -4 8
-10 0 -5 18 -28 40 -50 22 -22 40 -37 40 -34 0 3 8 -3 18 -14 22 -26 122 -95
129 -89 2 3 16 -6 30 -19 24 -22 47 -29 82 -25 7 2 10 -2 6 -8 -3 -6 1 -11 9
-11 8 0 21 -6 28 -12 7 -7 18 -13 23 -13 6 0 33 -8 60 -17 28 -9 78 -22 112
-29 34 -7 60 -15 58 -18 -2 -3 7 -7 18 -8 12 -1 47 -5 77 -10 85 -11 467 -4
540 10 62 12 56 12 -125 13 -129 0 -226 5 -300 17 -518 81 -865 322 -893 620
-4 44 -10 75 -14 71z"/>
<path d="M2092 778 c-7 -7 -12 -16 -12 -20 0 -4 -9 -17 -21 -29 -16 -16 -23
-18 -35 -8 -10 8 -18 9 -25 2 -15 -15 -21 -84 -8 -99 14 -18 -6 -46 -30 -42
-9 2 -15 -1 -14 -7 0 -5 -5 -16 -13 -23 -11 -10 -14 -10 -14 0 -1 10 -4 9 -13
-2 -7 -8 -36 -26 -64 -39 -29 -14 -53 -26 -53 -28 0 -3 7 -11 15 -19 8 -9 15
-25 15 -37 0 -22 27 -36 98 -54 33 -8 136 34 184 77 24 20 52 40 64 44 12 3
43 22 69 41 46 32 49 37 51 82 1 29 -4 54 -11 63 -75 84 -97 102 -120 98 -13
-3 -22 -1 -19 3 8 14 -30 11 -44 -3z"/>
<path d="M460 269 c8 -5 31 -18 51 -29 40 -21 67 -46 177 -163 l72 -77 293 0
c307 1 392 10 524 57 l53 18 -182 -3 c-199 -4 -309 6 -496 43 -147 30 -286 74
-403 126 -84 38 -119 49 -89 28z"/>
</g>
</svg>
