<?xml version="1.0" standalone="no"?>
<!DOCTYPE svg PUBLIC "-//W3C//DTD SVG 20010904//EN"
 "http://www.w3.org/TR/2001/REC-SVG-20010904/DTD/svg10.dtd">
<svg version="1.0" xmlns="http://www.w3.org/2000/svg"
 width="275.000000pt" height="183.000000pt" viewBox="0 0 275.000000 183.000000"
 preserveAspectRatio="xMidYMid meet">
<metadata>
Created by potrace 1.16, written by Peter Selinger 2001-2019
</metadata>
<g transform="translate(0.000000,183.000000) scale(0.100000,-0.100000)"
fill="#000000" stroke="none">
<path d="M685 1794 c-8 -20 -15 -43 -15 -50 0 -8 -4 -14 -10 -14 -5 0 -10 -5
-10 -10 0 -20 -78 -117 -120 -150 -48 -38 -109 -80 -116 -80 -2 0 -22 -11 -45
-25 -22 -14 -44 -23 -49 -20 -6 4 -10 2 -10 -3 0 -6 -17 -17 -37 -25 -44 -19
-32 -20 57 -7 48 7 66 6 72 -3 5 -8 8 -6 8 6 0 10 4 16 9 13 12 -8 120 59 163
101 21 20 40 34 43 31 5 -5 -11 -26 -76 -95 -22 -24 -36 -43 -30 -43 27 0 201
153 201 177 0 7 4 13 8 13 7 0 33 51 63 125 4 11 9 37 11 58 l4 37 -53 0 c-51
0 -53 -1 -68 -36z"/>
<path d="M2533 1635 c-18 -8 -33 -21 -33 -30 0 -9 -4 -13 -10 -10 -14 8 -66
-68 -90 -132 -27 -74 -35 -134 -22 -173 9 -24 9 -31 0 -28 -17 6 -45 48 -53
78 -4 19 -1 17 14 -10 11 -19 20 -29 21 -21 0 8 -20 48 -44 90 -24 42 -55 97
-67 124 -13 26 -26 47 -30 47 -4 0 6 -50 22 -112 16 -61 28 -116 26 -122 -5
-15 -52 71 -78 144 -13 36 -25 58 -27 50 -3 -20 42 -210 57 -238 6 -12 7 -23
2 -26 -10 -7 -21 3 -21 20 0 7 -11 29 -24 49 -14 20 -34 65 -46 100 -12 36
-24 65 -27 65 -12 0 25 -212 41 -239 4 -5 2 -12 -3 -16 -6 -3 -8 -12 -4 -20 3
-9 -1 -15 -8 -15 -8 -1 2 -9 21 -19 19 -10 48 -25 64 -34 27 -15 30 -14 45 3
26 30 112 91 121 85 4 -3 6 -24 3 -48 l-5 -42 23 30 c27 34 48 42 60 24 5 -9
10 -4 14 14 6 21 13 27 34 27 29 0 79 29 51 30 -35 1 -41 15 -30 66 12 53 99
234 112 234 12 0 -11 42 -31 57 -21 16 -39 15 -78 -2z"/>
<path d="M1532 1583 c-10 -4 -6 -13 14 -34 15 -16 24 -32 21 -36 -4 -3 3 -18
15 -32 l23 -26 -26 23 c-14 12 -29 22 -33 22 -4 0 -17 10 -28 23 -13 15 -21
18 -24 10 -10 -22 -27 -14 -21 10 6 21 5 21 -8 3 -8 -10 -19 -15 -26 -10 -7 4
-10 3 -5 -4 3 -5 3 -12 -1 -15 -5 -2 -2 -2 5 -1 6 2 12 -3 12 -11 0 -8 -8 -15
-17 -15 -17 -1 -17 -1 0 -14 18 -14 23 -46 7 -46 -5 0 -10 5 -10 10 0 6 -4 10
-9 10 -5 0 -11 -16 -13 -35 -4 -35 8 -48 18 -20 4 8 11 15 16 15 7 0 6 -5 -1
-13 -6 -8 -10 -16 -8 -18 1 -2 0 -3 -2 -2 -2 1 -20 -8 -40 -21 -32 -21 -68
-25 -57 -7 3 4 -5 8 -16 8 -20 2 -20 1 -2 -12 18 -14 18 -15 -1 -20 -17 -5
-20 -14 -19 -50 1 -36 -2 -46 -18 -51 -11 -3 -17 -8 -14 -12 3 -3 -4 -10 -17
-17 -12 -6 -25 -8 -28 -3 -6 9 -104 14 -129 7 -8 -2 -14 1 -13 8 3 13 -57 63
-75 63 -21 0 -13 15 16 32 16 10 29 24 29 32 0 16 -53 40 -67 31 -5 -3 -10 -1
-12 4 -2 5 -13 5 -27 0 -28 -11 -26 -16 13 -23 16 -3 29 -6 30 -8 1 -2 7 -10
14 -19 9 -13 9 -16 -3 -16 -8 0 -15 7 -15 14 0 11 -6 12 -22 6 -13 -4 -39 -7
-58 -7 -44 1 -68 -20 -43 -36 16 -10 16 -10 -3 -5 -17 4 -20 1 -20 -27 0 -33
13 -51 60 -82 23 -14 26 -20 15 -28 -11 -7 -9 -8 6 -6 13 2 21 12 23 31 2 16
9 27 18 27 19 0 9 39 -15 57 -14 11 -12 13 14 14 17 1 37 1 45 0 23 -3 60 -49
60 -77 0 -13 6 -24 13 -24 9 0 8 -3 -2 -9 -7 -5 -10 -14 -6 -20 4 -7 1 -19 -7
-28 -11 -14 -10 -15 12 -8 14 4 31 13 39 19 12 9 13 7 6 -9 -4 -11 -12 -45
-17 -75 -5 -30 -13 -74 -17 -97 -9 -48 -6 -55 10 -20 9 21 9 20 4 -4 -4 -22 2
-32 30 -53 40 -31 59 -26 95 24 14 20 26 27 38 23 15 -6 15 -5 3 11 -9 11 -17
13 -21 6 -4 -7 -15 -4 -31 9 -13 11 -19 20 -14 21 6 0 16 -5 22 -11 8 -8 15
-6 25 10 16 26 98 31 98 6 0 -14 -12 -20 -33 -16 -5 1 -6 -3 -2 -9 3 -5 -1
-10 -9 -10 -9 0 -16 -4 -16 -8 0 -5 -7 -17 -16 -28 -8 -10 -13 -13 -9 -6 11
22 -7 13 -39 -20 -17 -18 -30 -37 -28 -42 2 -5 -7 -15 -19 -24 -18 -12 -19
-16 -7 -23 8 -5 24 -7 36 -4 30 5 41 -43 14 -64 -19 -16 -31 -50 -36 -101 -1
-14 -13 -47 -26 -75 -26 -54 -30 -103 -11 -149 l12 -29 15 21 c8 12 21 22 28
22 8 0 19 7 26 15 10 12 10 18 -1 32 -12 14 -12 16 1 11 8 -2 20 -13 25 -24
24 -46 28 -49 37 -25 7 21 28 21 28 0 0 -6 -4 -7 -10 -4 -5 3 -10 -1 -10 -9 0
-9 7 -16 15 -16 8 0 15 4 15 10 0 5 6 7 14 4 7 -3 25 9 40 27 l27 32 -21 22
c-12 13 -18 28 -14 38 8 21 -3 22 -23 1 -15 -15 -19 -10 -44 52 -36 88 -36
102 2 133 l31 26 -23 39 c-21 37 -23 38 -37 20 -14 -18 -14 -18 -7 1 4 11 8
26 8 33 0 7 13 22 29 33 19 14 26 25 20 32 -5 7 -6 21 -1 32 6 17 8 16 8 -9 1
-28 1 -29 21 -11 26 23 26 15 0 -15 -21 -24 -19 -40 5 -40 9 0 12 6 8 17 -5
12 -3 14 8 7 8 -5 16 -9 19 -10 21 -4 40 -18 40 -30 0 -8 10 -14 23 -14 12 0
33 -3 46 -7 18 -5 22 -3 16 7 -6 10 -2 11 19 6 17 -4 25 -3 22 3 -4 5 -2 13 4
16 6 4 1 14 -12 27 -17 15 -19 18 -5 14 9 -3 17 -1 17 4 0 5 6 7 14 4 11 -4
13 4 11 35 -1 22 1 39 4 36 4 -2 15 5 24 16 17 19 43 27 32 10 -3 -5 -1 -12 4
-15 5 -3 11 3 14 14 3 13 1 18 -6 13 -7 -4 -8 0 -4 11 12 32 -4 37 -36 12 -55
-42 -124 -62 -139 -41 -5 6 -8 6 -8 -2 0 -6 -14 2 -31 18 -19 18 -42 29 -59
29 -16 0 -32 5 -35 11 -4 6 -13 8 -21 5 -10 -4 -14 0 -12 12 2 9 -2 16 -9 15
-6 -2 -37 22 -67 52 -30 30 -53 55 -49 55 3 0 0 7 -7 15 -11 13 -10 14 4 9 9
-3 16 -10 16 -16 0 -5 5 -6 10 -3 6 3 10 -1 10 -9 0 -9 11 -23 25 -32 25 -16
26 -16 65 27 34 38 39 49 35 77 -7 38 2 42 15 7 l9 -25 40 20 c48 26 65 45 82
92 10 29 10 40 1 51 -10 12 -9 16 4 21 31 12 72 6 79 -11 6 -16 8 -16 26 6 10
13 19 29 19 36 0 7 6 15 13 18 6 2 9 7 6 11 -7 8 -69 -25 -69 -36 0 -5 -5 -8
-11 -8 -8 0 -8 4 0 13 8 10 7 17 -1 25 -9 9 -6 10 12 7 14 -3 31 3 45 17 l23
22 -44 29 c-45 30 -56 47 -29 47 8 0 15 5 15 10 0 10 -26 12 -48 3z"/>
<path d="M1310 1558 c-19 -5 -39 -14 -44 -19 -6 -5 -22 -9 -37 -9 -15 0 -35
-8 -45 -17 -13 -13 -19 -14 -22 -5 -5 17 -42 15 -42 -3 0 -8 5 -15 11 -15 6 0
8 -9 4 -20 -8 -24 20 -74 36 -65 5 4 12 -1 15 -9 3 -9 14 -16 23 -15 9 0 11 3
4 5 -14 6 -6 34 10 34 6 0 7 -3 4 -7 -11 -10 14 -33 37 -33 17 0 18 2 6 10
-13 9 -13 10 1 10 28 0 38 20 27 54 -14 40 -15 41 -33 26 -10 -8 -15 -9 -15
-1 0 6 0 13 0 16 0 3 1 4 3 3 2 -2 17 8 34 22 17 14 39 30 49 37 23 14 20 14
-26 1z"/>
<path d="M1723 1356 c-17 -14 -33 -22 -37 -19 -4 4 -4 0 0 -10 6 -16 1 -17
-48 -11 -46 5 -56 4 -61 -10 -4 -10 -3 -15 3 -11 15 9 12 -9 -5 -31 -14 -18
-16 -18 -26 -1 -14 24 -55 22 -62 -3 -3 -11 -2 -20 3 -20 13 0 20 -29 8 -36
-7 -4 -8 -3 -4 4 4 7 2 12 -3 12 -6 0 -11 -7 -11 -15 0 -13 -4 -14 -21 -4 -12
6 -19 7 -15 1 3 -5 -1 -13 -10 -16 -13 -5 -13 -10 6 -36 12 -16 18 -34 15 -40
-10 -17 -25 -11 -25 10 0 24 1 23 -37 8 -24 -11 -29 -17 -22 -33 4 -11 8 -16
8 -11 1 5 8 3 16 -4 8 -6 23 -9 36 -5 14 5 19 4 15 -4 -4 -6 -1 -11 8 -11 8 0
22 -7 30 -16 15 -14 16 -14 16 2 0 14 3 15 12 6 18 -18 25 -15 32 12 6 23 36
45 36 26 0 -6 7 -10 15 -10 39 0 1 35 -54 49 l-25 7 23 23 c12 12 26 20 29 16
4 -3 0 -10 -7 -14 -7 -5 -9 -11 -4 -14 4 -3 27 8 51 24 35 24 42 26 42 11 0
-15 2 -15 10 -2 11 17 13 37 3 27 -3 -4 -12 -2 -20 4 -10 9 -18 8 -31 -5 -24
-21 -27 -20 -29 3 -1 16 4 19 33 17 33 -3 46 7 22 17 -10 4 -10 6 0 6 7 1 15
-5 18 -13 3 -8 11 -13 19 -10 7 3 15 -2 19 -12 10 -27 39 3 31 33 -5 22 -4 23
15 13 72 -38 61 -199 -16 -241 -13 -7 -24 -16 -24 -21 0 -5 -4 -6 -10 -3 -13
8 -2 -20 29 -74 14 -25 20 -42 15 -38 -6 3 -16 -10 -23 -29 -10 -29 -15 -33
-27 -23 -8 6 -14 9 -14 6 0 -3 -15 0 -34 8 -51 22 -51 -1 1 -59 42 -47 54 -76
31 -76 -6 0 -8 3 -5 6 3 4 2 15 -4 26 -7 13 -14 16 -26 9 -12 -6 -22 -3 -36
13 -10 11 -16 15 -12 9 3 -7 1 -13 -4 -13 -6 0 -11 6 -11 14 0 7 -9 16 -20 19
-23 6 -26 -3 -7 -22 10 -10 8 -15 -7 -27 -11 -8 -25 -14 -32 -14 -16 0 -11
-53 5 -58 6 -2 11 -11 11 -20 1 -25 22 -48 44 -47 23 0 47 -56 28 -63 -7 -2
-12 -11 -12 -20 -1 -18 -33 -62 -45 -62 -4 0 -18 11 -30 25 -20 20 -21 26 -9
36 16 13 19 39 3 39 -5 0 -7 -4 -4 -10 4 -6 -1 -7 -11 -3 -13 5 -15 2 -9 -16
l7 -22 -41 20 c-22 12 -47 21 -55 21 -8 0 -16 6 -18 12 -3 7 -7 2 -10 -10 -6
-20 -2 -22 30 -22 58 0 119 -50 142 -116 7 -22 7 -25 -2 -13 -9 13 -16 10 -49
-26 -22 -23 -39 -45 -39 -49 0 -11 28 -6 33 7 3 6 6 0 6 -15 1 -19 -5 -29 -20
-33 -21 -7 -23 -35 -1 -43 7 -2 10 2 6 11 -6 18 9 29 29 21 18 -7 17 -42 -3
-54 -8 -5 -11 -12 -7 -16 4 -4 16 1 28 12 l21 19 -3 -41 c-6 -57 20 -53 39 6
12 34 12 47 3 62 -15 24 -7 38 19 31 18 -5 19 -1 15 28 -3 19 -3 28 1 21 3 -6
11 -9 17 -5 6 4 8 0 4 -11 -5 -13 -2 -15 18 -12 20 4 26 0 31 -20 7 -25 18
-31 29 -14 7 11 55 -33 55 -51 0 -5 9 -9 20 -9 16 0 20 7 20 30 0 19 -5 30
-14 30 -15 0 -28 48 -15 56 5 3 9 -1 9 -9 0 -8 7 -18 16 -21 12 -5 14 -1 8 17
-4 12 -11 25 -16 28 -11 7 0 77 13 85 5 3 9 14 9 25 0 13 7 19 23 20 15 1 17
3 5 6 -9 2 -19 11 -22 20 -5 13 -4 14 9 3 10 -8 15 -9 15 -1 0 6 5 11 11 11 5
0 7 -5 3 -12 -5 -7 -3 -8 5 -4 7 5 10 14 7 22 -3 8 0 11 9 8 8 -3 11 -13 8
-21 -5 -13 -1 -15 23 -9 16 4 36 8 46 10 27 4 44 24 63 73 13 33 15 48 7 51
-20 6 -13 35 14 59 37 32 46 81 23 133 -18 40 -17 90 1 90 5 0 12 9 15 20 4
14 15 20 35 20 37 0 48 18 16 26 -14 3 -30 12 -37 20 -9 11 -15 11 -34 -2 -24
-16 -51 -11 -40 7 4 5 2 16 -3 25 -7 13 -12 6 -23 -30 -7 -25 -16 -46 -20 -46
-4 0 -40 19 -81 43 -72 41 -74 42 -61 67 19 34 10 102 -16 136 -28 35 -8 51
28 23 30 -24 48 -48 66 -93 13 -31 13 -35 0 -30 -11 4 -15 -1 -15 -17 0 -18 3
-20 12 -11 20 20 32 13 50 -30 10 -23 20 -39 24 -36 13 14 5 88 -15 126 -17
34 -19 42 -7 42 8 0 22 -10 30 -22 9 -12 16 -17 16 -9 0 7 -15 26 -34 43 -39
34 -38 53 5 94 34 32 38 64 9 71 -11 3 -17 10 -13 15 3 6 -8 0 -26 -13 -22
-16 -49 -24 -91 -27 -47 -3 -60 -8 -61 -21 0 -9 -5 0 -11 19 -14 51 -22 54
-55 26z"/>
<path d="M2523 1228 c-18 -6 -35 -19 -38 -30 -4 -10 -10 -16 -15 -13 -5 3 -8
-5 -8 -17 1 -13 1 -39 -1 -58 l-2 -35 -27 31 c-22 26 -29 29 -39 19 -10 -11
-8 -18 6 -37 36 -47 51 -88 41 -114 -14 -37 -12 -65 5 -78 14 -10 13 -18 -9
-66 -14 -30 -43 -82 -65 -114 -30 -45 -37 -63 -29 -73 10 -12 7 -51 -18 -214
-4 -31 -2 -37 21 -47 36 -16 71 -15 89 4 12 11 16 36 16 99 0 102 18 287 29
298 5 5 22 -8 37 -28 57 -74 65 -79 29 -21 -28 45 -34 61 -23 67 15 10 35 -19
73 -106 26 -58 26 -59 4 -40 l-22 20 18 -27 c9 -15 21 -25 26 -22 5 3 6 -1 4
-8 -3 -8 2 -22 11 -33 8 -11 13 -14 9 -7 -3 6 -4 12 -2 12 3 0 27 -35 53 -77
l49 -78 3 104 c3 97 1 106 -23 142 -14 21 -25 41 -25 44 0 6 -11 20 -37 50 -7
7 -13 18 -13 24 0 6 -5 11 -11 11 -6 0 -8 7 -5 16 3 8 2 12 -4 9 -6 -3 -13 2
-17 12 -4 10 -11 23 -15 28 -5 6 -31 41 -59 79 l-50 70 7 70 c4 39 11 73 15
74 5 2 9 12 9 22 0 9 10 25 23 33 25 18 24 19 -20 5z"/>
<path d="M571 1141 c-6 -10 -7 -21 -4 -25 3 -3 2 -6 -4 -6 -22 0 -46 -143 -32
-193 l9 -35 49 49 c33 33 54 46 67 43 13 -4 24 4 36 24 14 23 23 28 43 24 15
-2 25 0 25 7 0 7 -16 11 -42 10 -89 -2 -110 22 -48 54 l35 19 -33 -6 c-27 -5
-32 -3 -30 11 4 24 -19 27 -32 4 -9 -17 -8 -21 5 -21 15 0 20 -12 8 -23 -3 -4
-12 1 -19 11 -12 15 -13 15 -8 -4 3 -12 2 -24 -3 -27 -11 -7 -14 20 -6 43 18
49 5 82 -16 41z"/>
<path d="M723 768 c2 -19 -3 -21 -38 -20 -22 0 -51 4 -65 8 -19 5 -22 4 -14
-5 6 -6 25 -13 42 -14 32 -2 42 -12 20 -19 -7 -3 2 -13 20 -23 18 -11 32 -26
32 -34 0 -11 -6 -9 -20 7 -24 25 -40 28 -40 8 0 -7 -7 -19 -15 -26 -8 -7 -15
-19 -15 -26 0 -16 36 -19 45 -4 3 6 13 10 21 10 22 0 74 41 67 53 -3 5 0 8 6
6 7 -3 12 -8 12 -12 -1 -10 37 -47 48 -47 5 0 11 7 15 15 3 9 0 15 -10 15 -23
0 -29 29 -8 45 18 14 18 14 -7 15 -15 0 -30 7 -33 16 -3 8 -10 12 -16 9 -5 -3
-10 0 -10 7 0 7 -9 19 -20 26 -18 11 -20 10 -17 -10z"/>
<path d="M847 603 c4 -10 2 -14 -5 -9 -6 3 -13 2 -17 -4 -4 -6 7 -10 27 -10
25 0 29 -3 18 -10 -8 -5 -25 -10 -36 -10 -12 0 -24 -7 -28 -15 -7 -18 10 -20
18 -2 3 6 5 -9 3 -35 -1 -27 2 -50 8 -52 6 -2 6 -8 -2 -16 -8 -9 -7 -17 5 -31
20 -23 50 -25 58 -4 4 8 10 12 15 9 5 -3 9 3 9 13 0 10 5 25 10 33 7 11 11 4
16 -28 3 -23 13 -47 20 -53 19 -15 18 1 -1 48 -8 19 -15 55 -15 78 0 26 -6 48
-15 55 -8 7 -15 18 -15 24 1 6 9 1 20 -12 22 -26 41 -22 33 7 -6 25 -27 33
-58 21 -16 -6 -25 -6 -25 0 0 5 -7 7 -15 4 -8 -4 -15 -1 -15 5 0 6 -4 11 -10
11 -5 0 -6 -7 -3 -17z"/>
<path d="M1083 545 c4 -59 3 -64 -10 -45 -10 14 -12 31 -8 51 5 22 4 29 -4 25
-6 -4 -9 -12 -6 -17 4 -5 2 -9 -4 -9 -6 0 -13 -11 -17 -25 -5 -21 -8 -23 -20
-10 -8 8 -21 12 -29 9 -21 -8 -19 -21 4 -27 11 -3 27 -22 35 -42 18 -43 22
-135 5 -135 -5 0 -7 -5 -4 -10 4 -6 11 -7 17 -4 16 10 37 68 28 79 -4 6 -11
20 -15 33 -6 21 -4 22 19 16 23 -6 26 -3 26 23 0 16 16 52 37 83 20 30 30 49
21 43 -8 -7 -19 -9 -23 -5 -5 4 -5 2 -1 -5 3 -6 2 -14 -3 -17 -10 -7 -9 20 2
30 13 14 7 20 -24 22 l-31 2 5 -65z"/>
<path d="M1090 356 c-5 -15 -8 -32 -4 -37 3 -5 -2 -9 -10 -9 -10 0 -16 -9 -16
-26 0 -34 21 -55 44 -42 14 8 16 6 10 -16 -6 -25 -5 -26 26 -19 30 5 32 4 25
-16 -7 -22 1 -26 24 -12 7 5 9 11 4 14 -5 4 -10 24 -11 47 -2 37 0 40 21 35
12 -3 34 -2 47 4 l25 10 -25 2 c-39 3 -64 5 -77 7 -6 1 -25 21 -42 44 l-30 41
-11 -27z"/>
</g>
</svg>
